{
	"asset":{
		"generator":"Khronos glTF Blender I/O v3.6.28",
		"version":"2.0"
	},
	"scene":0,
	"scenes":[
		{
			"name":"Scene",
			"nodes":[
				0,
				1,
				2,
				3
			]
		}
	],
	"nodes":[
		{
			"mesh":0,
			"name":"wheel1",
			"rotation":[
				0,
				0,
				-0.7071068286895752,
				0.7071068286895752
			],
			"translation":[
				0.6562478542327881,
				0.15525320172309875,
				0
			]
		},
		{
			"mesh":1,
			"name":"wheel2",
			"rotation":[
				0,
				0,
				-0.7071068286895752,
				0.7071068286895752
			],
			"translation":[
				-0.6364128589630127,
				0.15385544300079346,
				0
			]
		},
		{
			"mesh":2,
			"name":"cleaner",
			"translation":[
				0.002608158625662327,
				0.04867584630846977,
				-0.8784918189048767
			]
		},
		{
			"mesh":3,
			"name":"robot",
			"translation":[
				0,
				0.2800000011920929,
				0
			]
		}
	],
	"materials":[
		{
			"doubleSided":true,
			"name":"wheel",
			"pbrMetallicRoughness":{
				"baseColorFactor":[
					0,
					0,
					0,
					1
				],
				"metallicFactor":0,
				"roughnessFactor":0.5
			}
		},
		{
			"doubleSided":true,
			"name":"wheel.001",
			"pbrMetallicRoughness":{
				"baseColorFactor":[
					0,
					0,
					0,
					1
				],
				"metallicFactor":0,
				"roughnessFactor":0.5
			}
		},
		{
			"doubleSided":true,
			"name":"cleaner",
			"pbrMetallicRoughness":{
				"baseColorFactor":[
					0,
					0,
					0,
					1
				],
				"metallicFactor":0,
				"roughnessFactor":0.5
			}
		},
		{
			"doubleSided":true,
			"emissiveFactor":[
				1,
				1,
				1
			],
			"emissiveTexture":{
				"index":0
			},
			"name":"robot",
			"normalTexture":{
				"index":1
			},
			"pbrMetallicRoughness":{
				"baseColorTexture":{
					"index":2
				},
				"metallicFactor":0,
				"metallicRoughnessTexture":{
					"index":3
				}
			}
		}
	],
	"meshes":[
		{
			"name":"Cylinder.001",
			"primitives":[
				{
					"attributes":{
						"POSITION":0,
						"NORMAL":1,
						"TEXCOORD_0":2
					},
					"indices":3,
					"material":0
				}
			]
		},
		{
			"name":"Cylinder.002",
			"primitives":[
				{
					"attributes":{
						"POSITION":4,
						"NORMAL":5,
						"TEXCOORD_0":6
					},
					"indices":3,
					"material":1
				}
			]
		},
		{
			"name":"Cylinder.003",
			"primitives":[
				{
					"attributes":{
						"POSITION":7,
						"NORMAL":8,
						"TEXCOORD_0":9
					},
					"indices":10,
					"material":2
				}
			]
		},
		{
			"name":"Cylinder.004",
			"primitives":[
				{
					"attributes":{
						"POSITION":11,
						"NORMAL":12,
						"TEXCOORD_0":13
					},
					"indices":14,
					"material":3
				}
			]
		}
	],
	"textures":[
		{
			"sampler":0,
			"source":0
		},
		{
			"sampler":0,
			"source":1
		},
		{
			"sampler":0,
			"source":2
		},
		{
			"sampler":0,
			"source":3
		}
	],
	"images":[
		{
			"mimeType":"image/png",
			"name":"vacuum_cleaner_emission",
			"uri":"vacuum_cleaner_emission.png"
		},
		{
			"mimeType":"image/png",
			"name":"vacuum_cleaner_nor",
			"uri":"vacuum_cleaner_nor.png"
		},
		{
			"mimeType":"image/png",
			"name":"vacuum_cleaner_base",
			"uri":"vacuum_cleaner_base.png"
		},
		{
			"mimeType":"image/png",
			"name":"vacuum_cleaner_rough",
			"uri":"vacuum_cleaner_rough.png"
		}
	],
	"accessors":[
		{
			"bufferView":0,
			"componentType":5126,
			"count":130,
			"max":[
				0.20000004768371582,
				0.04000002145767212,
				0.20000004768371582
			],
			"min":[
				-0.20000004768371582,
				-0.04000002145767212,
				-0.20000004768371582
			],
			"type":"VEC3"
		},
		{
			"bufferView":1,
			"componentType":5126,
			"count":130,
			"type":"VEC3"
		},
		{
			"bufferView":2,
			"componentType":5126,
			"count":130,
			"type":"VEC2"
		},
		{
			"bufferView":3,
			"componentType":5123,
			"count":372,
			"type":"SCALAR"
		},
		{
			"bufferView":4,
			"componentType":5126,
			"count":130,
			"max":[
				0.20000004768371582,
				0.04000002145767212,
				0.20000004768371582
			],
			"min":[
				-0.20000004768371582,
				-0.04000002145767212,
				-0.20000004768371582
			],
			"type":"VEC3"
		},
		{
			"bufferView":5,
			"componentType":5126,
			"count":130,
			"type":"VEC3"
		},
		{
			"bufferView":6,
			"componentType":5126,
			"count":130,
			"type":"VEC2"
		},
		{
			"bufferView":7,
			"componentType":5126,
			"count":512,
			"max":[
				0.25538110733032227,
				0.04000002145767212,
				0.2371303141117096
			],
			"min":[
				-0.2600249648094177,
				-0.09596839547157288,
				-0.23939618468284607
			],
			"type":"VEC3"
		},
		{
			"bufferView":8,
			"componentType":5126,
			"count":512,
			"type":"VEC3"
		},
		{
			"bufferView":9,
			"componentType":5126,
			"count":512,
			"type":"VEC2"
		},
		{
			"bufferView":10,
			"componentType":5123,
			"count":852,
			"type":"SCALAR"
		},
		{
			"bufferView":11,
			"componentType":5126,
			"count":333,
			"max":[
				1,
				0.2250000238418579,
				1
			],
			"min":[
				-1,
				-0.2250000238418579,
				-1
			],
			"type":"VEC3"
		},
		{
			"bufferView":12,
			"componentType":5126,
			"count":333,
			"type":"VEC3"
		},
		{
			"bufferView":13,
			"componentType":5126,
			"count":333,
			"type":"VEC2"
		},
		{
			"bufferView":14,
			"componentType":5123,
			"count":756,
			"type":"SCALAR"
		}
	],
	"bufferViews":[
		{
			"buffer":0,
			"byteLength":1560,
			"byteOffset":0,
			"target":34962
		},
		{
			"buffer":0,
			"byteLength":1560,
			"byteOffset":1560,
			"target":34962
		},
		{
			"buffer":0,
			"byteLength":1040,
			"byteOffset":3120,
			"target":34962
		},
		{
			"buffer":0,
			"byteLength":744,
			"byteOffset":4160,
			"target":34963
		},
		{
			"buffer":0,
			"byteLength":1560,
			"byteOffset":4904,
			"target":34962
		},
		{
			"buffer":0,
			"byteLength":1560,
			"byteOffset":6464,
			"target":34962
		},
		{
			"buffer":0,
			"byteLength":1040,
			"byteOffset":8024,
			"target":34962
		},
		{
			"buffer":0,
			"byteLength":6144,
			"byteOffset":9064,
			"target":34962
		},
		{
			"buffer":0,
			"byteLength":6144,
			"byteOffset":15208,
			"target":34962
		},
		{
			"buffer":0,
			"byteLength":4096,
			"byteOffset":21352,
			"target":34962
		},
		{
			"buffer":0,
			"byteLength":1704,
			"byteOffset":25448,
			"target":34963
		},
		{
			"buffer":0,
			"byteLength":3996,
			"byteOffset":27152,
			"target":34962
		},
		{
			"buffer":0,
			"byteLength":3996,
			"byteOffset":31148,
			"target":34962
		},
		{
			"buffer":0,
			"byteLength":2664,
			"byteOffset":35144,
			"target":34962
		},
		{
			"buffer":0,
			"byteLength":1512,
			"byteOffset":37808,
			"target":34963
		}
	],
	"samplers":[
		{
			"magFilter":9729,
			"minFilter":9987
		}
	],
	"buffers":[
		{
			"byteLength":39320,
			"uri":"vacuum_cleaner.bin"
		}
	]
}
