{
	"asset":{
		"generator":"Khronos glTF Blender I/O v3.6.27",
		"version":"2.0"
	},
	"scene":0,
	"scenes":[
		{
			"name":"Scene",
			"nodes":[
				2
			]
		}
	],
	"nodes":[
		{
			"mesh":0,
			"name":"Cube.001"
		},
		{
			"mesh":1,
			"name":"Cube.002"
		},
		{
			"children":[
				0,
				1
			],
			"mesh":2,
			"name":"Cube"
		}
	],
	"materials":[
		{
			"doubleSided":true,
			"name":"Material",
			"pbrMetallicRoughness":{
				"baseColorFactor":[
					0.25,
					0.25,
					0.25,
					1
				],
				"metallicFactor":0,
				"roughnessFactor":0.5
			}
		},
		{
			"doubleSided":true,
			"name":"Material.001",
			"pbrMetallicRoughness":{
				"baseColorTexture":{
					"index":0
				},
				"metallicFactor":0,
				"roughnessFactor":0.12272727489471436
			}
		},
		{
			"doubleSided":true,
			"name":"Material.002",
			"pbrMetallicRoughness":{
				"baseColorTexture":{
					"index":1
				},
				"metallicFactor":0,
				"roughnessFactor":0.5
			}
		},
		{
			"doubleSided":true,
			"emissiveFactor":[
				0.31649431586265564,
				0.6888754367828369,
				0.8000000715255737
			],
			"name":"Material.007",
			"pbrMetallicRoughness":{
				"baseColorFactor":[
					0,
					0,
					0,
					1
				]
			}
		},
		{
			"doubleSided":true,
			"name":"Material.004",
			"pbrMetallicRoughness":{}
		},
		{
			"doubleSided":true,
			"emissiveFactor":[
				1,
				1,
				1
			],
			"emissiveTexture":{
				"index":2
			},
			"name":"Material.005",
			"pbrMetallicRoughness":{
				"baseColorTexture":{
					"index":3
				},
				"metallicFactor":0,
				"roughnessFactor":0.5
			}
		}
	],
	"meshes":[
		{
			"name":"Cube.001",
			"primitives":[
				{
					"attributes":{
						"POSITION":0,
						"NORMAL":1,
						"TEXCOORD_0":2
					},
					"indices":3,
					"material":0
				},
				{
					"attributes":{
						"POSITION":4,
						"NORMAL":5,
						"TEXCOORD_0":6
					},
					"indices":7,
					"material":1
				}
			]
		},
		{
			"name":"Cube.002",
			"primitives":[
				{
					"attributes":{
						"POSITION":8,
						"NORMAL":9,
						"TEXCOORD_0":10
					},
					"indices":11,
					"material":0
				},
				{
					"attributes":{
						"POSITION":12,
						"NORMAL":13,
						"TEXCOORD_0":14
					},
					"indices":15,
					"material":2
				},
				{
					"attributes":{
						"POSITION":16,
						"NORMAL":17,
						"TEXCOORD_0":18
					},
					"indices":19,
					"material":3
				}
			]
		},
		{
			"name":"Cube",
			"primitives":[
				{
					"attributes":{
						"POSITION":20,
						"NORMAL":21,
						"TEXCOORD_0":22
					},
					"indices":23,
					"material":0
				},
				{
					"attributes":{
						"POSITION":24,
						"NORMAL":25,
						"TEXCOORD_0":26
					},
					"indices":27,
					"material":2
				},
				{
					"attributes":{
						"POSITION":28,
						"NORMAL":29,
						"TEXCOORD_0":30
					},
					"indices":31,
					"material":4
				},
				{
					"attributes":{
						"POSITION":32,
						"NORMAL":33,
						"TEXCOORD_0":34
					},
					"indices":35,
					"material":5
				},
				{
					"attributes":{
						"POSITION":36,
						"NORMAL":37,
						"TEXCOORD_0":38
					},
					"indices":39,
					"material":5
				}
			]
		}
	],
	"textures":[
		{
			"sampler":0,
			"source":0
		},
		{
			"sampler":0,
			"source":1
		},
		{
			"sampler":0,
			"source":2
		},
		{
			"sampler":0,
			"source":2
		}
	],
	"images":[
		{
			"mimeType":"image/png",
			"name":"blank",
			"uri":"blank.png"
		},
		{
			"mimeType":"image/png",
			"name":"keyboard",
			"uri":"keyboard.png"
		},
		{
			"mimeType":"image/png",
			"name":"keycard reader",
			"uri":"keycard%20reader.png"
		}
	],
	"accessors":[
		{
			"bufferView":0,
			"componentType":5126,
			"count":410,
			"max":[
				1.9422354698181152,
				2.0793941020965576,
				-0.9706725478172302
			],
			"min":[
				-1.943825602531433,
				0.16927401721477509,
				-3.023996591567993
			],
			"type":"VEC3"
		},
		{
			"bufferView":1,
			"componentType":5126,
			"count":410,
			"type":"VEC3"
		},
		{
			"bufferView":2,
			"componentType":5126,
			"count":410,
			"type":"VEC2"
		},
		{
			"bufferView":3,
			"componentType":5123,
			"count":864,
			"type":"SCALAR"
		},
		{
			"bufferView":4,
			"componentType":5126,
			"count":16,
			"max":[
				1.885022521018982,
				2.0094351768493652,
				-1.0189192295074463
			],
			"min":[
				-1.8866126537322998,
				0.215863436460495,
				-2.9517698287963867
			],
			"type":"VEC3"
		},
		{
			"bufferView":5,
			"componentType":5126,
			"count":16,
			"type":"VEC3"
		},
		{
			"bufferView":6,
			"componentType":5126,
			"count":16,
			"type":"VEC2"
		},
		{
			"bufferView":7,
			"componentType":5123,
			"count":42,
			"type":"SCALAR"
		},
		{
			"bufferView":8,
			"componentType":5126,
			"count":1172,
			"max":[
				1.8246221542358398,
				0.20391444861888885,
				0.7725454568862915
			],
			"min":[
				-1.7867388725280762,
				0.1811320185661316,
				-0.6491022109985352
			],
			"type":"VEC3"
		},
		{
			"bufferView":9,
			"componentType":5126,
			"count":1172,
			"type":"VEC3"
		},
		{
			"bufferView":10,
			"componentType":5126,
			"count":1172,
			"type":"VEC2"
		},
		{
			"bufferView":11,
			"componentType":5123,
			"count":1758,
			"type":"SCALAR"
		},
		{
			"bufferView":12,
			"componentType":5126,
			"count":318,
			"max":[
				1.8246221542358398,
				0.20391444861888885,
				0.7724609375
			],
			"min":[
				-1.7867388725280762,
				0.1845279335975647,
				-0.6491022109985352
			],
			"type":"VEC3"
		},
		{
			"bufferView":13,
			"componentType":5126,
			"count":318,
			"type":"VEC3"
		},
		{
			"bufferView":14,
			"componentType":5126,
			"count":318,
			"type":"VEC2"
		},
		{
			"bufferView":15,
			"componentType":5123,
			"count":480,
			"type":"SCALAR"
		},
		{
			"bufferView":16,
			"componentType":5126,
			"count":8,
			"max":[
				1.8990319967269897,
				0.19099821150302887,
				1.7211356163024902
			],
			"min":[
				-1.9066530466079712,
				0.17582538723945618,
				-0.643384575843811
			],
			"type":"VEC3"
		},
		{
			"bufferView":17,
			"componentType":5126,
			"count":8,
			"type":"VEC3"
		},
		{
			"bufferView":18,
			"componentType":5126,
			"count":8,
			"type":"VEC2"
		},
		{
			"bufferView":19,
			"componentType":5123,
			"count":12,
			"type":"SCALAR"
		},
		{
			"bufferView":20,
			"componentType":5126,
			"count":1522,
			"max":[
				1.955344796180725,
				0.20274701714515686,
				1.801866054534912
			],
			"min":[
				-1.955344796180725,
				0.11051687598228455,
				-0.9817029237747192
			],
			"type":"VEC3"
		},
		{
			"bufferView":21,
			"componentType":5126,
			"count":1522,
			"type":"VEC3"
		},
		{
			"bufferView":22,
			"componentType":5126,
			"count":1522,
			"type":"VEC2"
		},
		{
			"bufferView":23,
			"componentType":5123,
			"count":4260,
			"type":"SCALAR"
		},
		{
			"bufferView":24,
			"componentType":5126,
			"count":4,
			"max":[
				1.5526156425476074,
				0.19428716599941254,
				0.6681296825408936
			],
			"min":[
				1.310562014579773,
				0.19410371780395508,
				0.6364309191703796
			],
			"type":"VEC3"
		},
		{
			"bufferView":25,
			"componentType":5126,
			"count":4,
			"type":"VEC3"
		},
		{
			"bufferView":26,
			"componentType":5126,
			"count":4,
			"type":"VEC2"
		},
		{
			"bufferView":27,
			"componentType":5123,
			"count":6,
			"type":"SCALAR"
		},
		{
			"bufferView":28,
			"componentType":5126,
			"count":90,
			"max":[
				1.3785967826843262,
				0.20274701714515686,
				1.7795161008834839
			],
			"min":[
				-0.6466286182403564,
				0.18555283546447754,
				0.9025450348854065
			],
			"type":"VEC3"
		},
		{
			"bufferView":29,
			"componentType":5126,
			"count":90,
			"type":"VEC3"
		},
		{
			"bufferView":30,
			"componentType":5126,
			"count":90,
			"type":"VEC2"
		},
		{
			"bufferView":31,
			"componentType":5123,
			"count":216,
			"type":"SCALAR"
		},
		{
			"bufferView":32,
			"componentType":5126,
			"count":4,
			"max":[
				-1.6058398485183716,
				0.1951911747455597,
				1.6243374347686768
			],
			"min":[
				-1.7902007102966309,
				0.1938410848379135,
				1.3910576105117798
			],
			"type":"VEC3"
		},
		{
			"bufferView":33,
			"componentType":5126,
			"count":4,
			"type":"VEC3"
		},
		{
			"bufferView":34,
			"componentType":5126,
			"count":4,
			"type":"VEC2"
		},
		{
			"bufferView":35,
			"componentType":5123,
			"count":6,
			"type":"SCALAR"
		},
		{
			"bufferView":36,
			"componentType":5126,
			"count":48,
			"max":[
				1.3289165496826172,
				0.1951279491186142,
				-0.9290111064910889
			],
			"min":[
				-1.323797583580017,
				0.1160319447517395,
				-0.9917162656784058
			],
			"type":"VEC3"
		},
		{
			"bufferView":37,
			"componentType":5126,
			"count":48,
			"type":"VEC3"
		},
		{
			"bufferView":38,
			"componentType":5126,
			"count":48,
			"type":"VEC2"
		},
		{
			"bufferView":39,
			"componentType":5123,
			"count":72,
			"type":"SCALAR"
		}
	],
	"bufferViews":[
		{
			"buffer":0,
			"byteLength":4920,
			"byteOffset":0,
			"target":34962
		},
		{
			"buffer":0,
			"byteLength":4920,
			"byteOffset":4920,
			"target":34962
		},
		{
			"buffer":0,
			"byteLength":3280,
			"byteOffset":9840,
			"target":34962
		},
		{
			"buffer":0,
			"byteLength":1728,
			"byteOffset":13120,
			"target":34963
		},
		{
			"buffer":0,
			"byteLength":192,
			"byteOffset":14848,
			"target":34962
		},
		{
			"buffer":0,
			"byteLength":192,
			"byteOffset":15040,
			"target":34962
		},
		{
			"buffer":0,
			"byteLength":128,
			"byteOffset":15232,
			"target":34962
		},
		{
			"buffer":0,
			"byteLength":84,
			"byteOffset":15360,
			"target":34963
		},
		{
			"buffer":0,
			"byteLength":14064,
			"byteOffset":15444,
			"target":34962
		},
		{
			"buffer":0,
			"byteLength":14064,
			"byteOffset":29508,
			"target":34962
		},
		{
			"buffer":0,
			"byteLength":9376,
			"byteOffset":43572,
			"target":34962
		},
		{
			"buffer":0,
			"byteLength":3516,
			"byteOffset":52948,
			"target":34963
		},
		{
			"buffer":0,
			"byteLength":3816,
			"byteOffset":56464,
			"target":34962
		},
		{
			"buffer":0,
			"byteLength":3816,
			"byteOffset":60280,
			"target":34962
		},
		{
			"buffer":0,
			"byteLength":2544,
			"byteOffset":64096,
			"target":34962
		},
		{
			"buffer":0,
			"byteLength":960,
			"byteOffset":66640,
			"target":34963
		},
		{
			"buffer":0,
			"byteLength":96,
			"byteOffset":67600,
			"target":34962
		},
		{
			"buffer":0,
			"byteLength":96,
			"byteOffset":67696,
			"target":34962
		},
		{
			"buffer":0,
			"byteLength":64,
			"byteOffset":67792,
			"target":34962
		},
		{
			"buffer":0,
			"byteLength":24,
			"byteOffset":67856,
			"target":34963
		},
		{
			"buffer":0,
			"byteLength":18264,
			"byteOffset":67880,
			"target":34962
		},
		{
			"buffer":0,
			"byteLength":18264,
			"byteOffset":86144,
			"target":34962
		},
		{
			"buffer":0,
			"byteLength":12176,
			"byteOffset":104408,
			"target":34962
		},
		{
			"buffer":0,
			"byteLength":8520,
			"byteOffset":116584,
			"target":34963
		},
		{
			"buffer":0,
			"byteLength":48,
			"byteOffset":125104,
			"target":34962
		},
		{
			"buffer":0,
			"byteLength":48,
			"byteOffset":125152,
			"target":34962
		},
		{
			"buffer":0,
			"byteLength":32,
			"byteOffset":125200,
			"target":34962
		},
		{
			"buffer":0,
			"byteLength":12,
			"byteOffset":125232,
			"target":34963
		},
		{
			"buffer":0,
			"byteLength":1080,
			"byteOffset":125244,
			"target":34962
		},
		{
			"buffer":0,
			"byteLength":1080,
			"byteOffset":126324,
			"target":34962
		},
		{
			"buffer":0,
			"byteLength":720,
			"byteOffset":127404,
			"target":34962
		},
		{
			"buffer":0,
			"byteLength":432,
			"byteOffset":128124,
			"target":34963
		},
		{
			"buffer":0,
			"byteLength":48,
			"byteOffset":128556,
			"target":34962
		},
		{
			"buffer":0,
			"byteLength":48,
			"byteOffset":128604,
			"target":34962
		},
		{
			"buffer":0,
			"byteLength":32,
			"byteOffset":128652,
			"target":34962
		},
		{
			"buffer":0,
			"byteLength":12,
			"byteOffset":128684,
			"target":34963
		},
		{
			"buffer":0,
			"byteLength":576,
			"byteOffset":128696,
			"target":34962
		},
		{
			"buffer":0,
			"byteLength":576,
			"byteOffset":129272,
			"target":34962
		},
		{
			"buffer":0,
			"byteLength":384,
			"byteOffset":129848,
			"target":34962
		},
		{
			"buffer":0,
			"byteLength":144,
			"byteOffset":130232,
			"target":34963
		}
	],
	"samplers":[
		{
			"magFilter":9729,
			"minFilter":9987
		}
	],
	"buffers":[
		{
			"byteLength":130376,
			"uri":"laptop.bin"
		}
	]
}
