{
  "asset": {
    "generator": "Khronos glTF Blender I/O v1.6.16",
    "version": "2.0"
  },
  "scene": 0,
  "scenes": [
    {
      "name": "Scene",
      "nodes": [
        0
      ]
    }
  ],
  "nodes": [
    {
      "mesh": 0,
      "name": "Sofa_01"
    }
  ],
  "materials": [
    {
      "doubleSided": true,
      "name": "Sofa_01",
      "normalTexture": {
        "index": 0
      },
      "pbrMetallicRoughness": {
        "baseColorTexture": {
          "index": 1
        },
        "metallicRoughnessTexture": {
          "index": 2
        }
      }
    }
  ],
  "meshes": [
    {
      "name": "Line1789534131.002",
      "primitives": [
        {
          "attributes": {
            "POSITION": 0,
            "NORMAL": 1,
            "TEXCOORD_0": 2
          },
          "indices": 3,
          "material": 0
        }
      ]
    }
  ],
  "textures": [
    {
      "sampler": 0,
      "source": 0
    },
    {
      "sampler": 0,
      "source": 1
    },
    {
      "sampler": 0,
      "source": 2
    }
  ],
  "images": [
    {
      "mimeType": "image/jpeg",
      "name": "Sofa_01_nor_gl",
      "uri": "textures/Sofa_01_nor_gl_2k.jpg"
    },
    {
      "mimeType": "image/jpeg",
      "name": "Sofa_01_diff",
      "uri": "textures/Sofa_01_diff_2k.jpg"
    },
    {
      "mimeType": "image/jpeg",
      "name": "Sofa_01_metallic-Sofa_01_roughness",
      "uri": "textures/Sofa_01_arm_2k.jpg"
    }
  ],
  "accessors": [
    {
      "bufferView": 0,
      "componentType": 5126,
      "count": 2708,
      "max": [
        0.7933560013771057,
        0.7959280610084534,
        0.29681089520454407
      ],
      "min": [
        -0.7781115770339966,
        -0.0005869903834536672,
        -0.3612036406993866
      ],
      "type": "VEC3"
    },
    {
      "bufferView": 1,
      "componentType": 5126,
      "count": 2708,
      "type": "VEC3"
    },
    {
      "bufferView": 2,
      "componentType": 5126,
      "count": 2708,
      "type": "VEC2"
    },
    {
      "bufferView": 3,
      "componentType": 5123,
      "count": 12303,
      "type": "SCALAR"
    }
  ],
  "bufferViews": [
    {
      "buffer": 0,
      "byteLength": 32496,
      "byteOffset": 0
    },
    {
      "buffer": 0,
      "byteLength": 32496,
      "byteOffset": 32496
    },
    {
      "buffer": 0,
      "byteLength": 21664,
      "byteOffset": 64992
    },
    {
      "buffer": 0,
      "byteLength": 24606,
      "byteOffset": 86656
    }
  ],
  "samplers": [
    {
      "magFilter": 9729,
      "minFilter": 9987
    }
  ],
  "buffers": [
    {
      "byteLength": 111264,
      "uri": "Sofa_01.bin"
    }
  ]
}