{
	"asset":{
		"generator":"Khronos glTF Blender I/O v3.6.28",
		"version":"2.0"
	},
	"scene":0,
	"scenes":[
		{
			"name":"Scene",
			"nodes":[
				0
			]
		}
	],
	"nodes":[
		{
			"mesh":0,
			"name":"Television_01"
		}
	],
	"materials":[
		{
			"doubleSided":true,
			"name":"Television_01",
			"normalTexture":{
				"index":0
			},
			"pbrMetallicRoughness":{
				"baseColorTexture":{
					"index":1
				},
				"metallicRoughnessTexture":{
					"index":2
				}
			}
		}
	],
	"meshes":[
		{
			"name":"Cube.021",
			"primitives":[
				{
					"attributes":{
						"COLOR_0":0,
						"POSITION":1,
						"NORMAL":2,
						"TEXCOORD_0":3
					},
					"indices":4,
					"material":0
				}
			]
		}
	],
	"textures":[
		{
			"sampler":0,
			"source":0
		},
		{
			"sampler":0,
			"source":1
		},
		{
			"sampler":0,
			"source":2
		}
	],
	"images":[
		{
			"mimeType":"image/jpeg",
			"name":"Television_01_nor_gl_2k",
			"uri":"Television_01_nor_gl_2k.jpg"
		},
		{
			"mimeType":"image/png",
			"name":"Television_01_diff_2k",
			"uri":"Television_01_diff_2k.png"
		},
		{
			"mimeType":"image/png",
			"name":"Television_01_arm_2k",
			"uri":"Television_01_arm_2k.png"
		}
	],
	"accessors":[
		{
			"bufferView":0,
			"componentType":5123,
			"count":1996,
			"normalized":true,
			"type":"VEC4"
		},
		{
			"bufferView":1,
			"componentType":5126,
			"count":1996,
			"max":[
				0.29999998211860657,
				0.4568334221839905,
				0.21244415640830994
			],
			"min":[
				-0.29999998211860657,
				-1.5506739146076143e-05,
				-0.25836652517318726
			],
			"type":"VEC3"
		},
		{
			"bufferView":2,
			"componentType":5126,
			"count":1996,
			"type":"VEC3"
		},
		{
			"bufferView":3,
			"componentType":5126,
			"count":1996,
			"type":"VEC2"
		},
		{
			"bufferView":4,
			"componentType":5123,
			"count":5754,
			"type":"SCALAR"
		}
	],
	"bufferViews":[
		{
			"buffer":0,
			"byteLength":15968,
			"byteOffset":0,
			"target":34962
		},
		{
			"buffer":0,
			"byteLength":23952,
			"byteOffset":15968,
			"target":34962
		},
		{
			"buffer":0,
			"byteLength":23952,
			"byteOffset":39920,
			"target":34962
		},
		{
			"buffer":0,
			"byteLength":15968,
			"byteOffset":63872,
			"target":34962
		},
		{
			"buffer":0,
			"byteLength":11508,
			"byteOffset":79840,
			"target":34963
		}
	],
	"samplers":[
		{
			"magFilter":9729,
			"minFilter":9987
		}
	],
	"buffers":[
		{
			"byteLength":91348,
			"uri":"TV.bin"
		}
	]
}
